<svg width="72" height="72" viewBox="0 0 72 72" fill="none" xmlns="http://www.w3.org/2000/svg">
<g opacity="0.8">
<rect x="0.692308" y="0.692308" width="70.6154" height="70.6154" rx="35.3077" fill="white" stroke="#1D1D1D" stroke-width="1.38462" stroke-dasharray="5.54 5.54"/>
<path fill-rule="evenodd" clip-rule="evenodd" d="M38.5337 29.376C39.3753 29.711 39.6328 30.8777 39.977 31.2527C40.3212 31.6277 40.8137 31.7552 41.0862 31.7552C42.5345 31.7552 43.7087 32.9293 43.7087 34.3768V39.206C43.7087 41.1477 42.1337 42.7227 40.192 42.7227H31.8087C29.8662 42.7227 28.292 41.1477 28.292 39.206V34.3768C28.292 32.9293 29.4662 31.7552 30.9145 31.7552C31.1862 31.7552 31.6787 31.6277 32.0237 31.2527C32.3678 30.8777 32.6245 29.711 33.4662 29.376C34.3087 29.041 37.692 29.041 38.5337 29.376Z" stroke="#1D1D1D" stroke-width="1.27766" stroke-linecap="round" stroke-linejoin="round"/>
<path d="M40.5797 33.9167H40.5872" stroke="#1D1D1D" stroke-width="1.27766" stroke-linecap="round" stroke-linejoin="round"/>
<path fill-rule="evenodd" clip-rule="evenodd" d="M38.6492 36.9399C38.6492 35.4766 37.4633 34.2908 36 34.2908C34.5367 34.2908 33.3508 35.4766 33.3508 36.9399C33.3508 38.4033 34.5367 39.5891 36 39.5891C37.4633 39.5891 38.6492 38.4033 38.6492 36.9399Z" stroke="#1D1D1D" stroke-width="1.27766" stroke-linecap="round" stroke-linejoin="round"/>
</g>
</svg>
