<svg width="18" height="14" viewBox="0 0 18 14" fill="none" xmlns="http://www.w3.org/2000/svg">
<rect y="0.5" width="18" height="13" rx="2" fill="white"/>
<mask id="mask0_343_2302" style="mask-type:alpha" maskUnits="userSpaceOnUse" x="0" y="0" width="18" height="14">
<rect y="0.5" width="18" height="13" rx="2" fill="white"/>
</mask>
<g mask="url(#mask0_343_2302)">
<rect y="0.5" width="18" height="13" fill="#0A17A7"/>
<path d="M0 0.166667H-0.893575L-0.21831 0.751896L2.66667 3.25221V3.79623L-0.195164 5.86311L-0.333333 5.9629V6.13333V6.56667V7.17163L0.178071 6.84845L3.52507 4.73333H4.17793L7.05315 6.80988C7.13427 6.86847 7.23179 6.9 7.33184 6.9C7.77248 6.9 7.97657 6.35288 7.64359 6.0643L5.04762 3.81446V3.27044L7.77128 1.30335C7.94482 1.17801 8.04762 0.976966 8.04762 0.762896V0.5V-0.104962L7.53621 0.218217L4.18922 2.33333H3.53636L0.623735 0.229774L0.536356 0.166667H0.428571H0Z" fill="#FF2E3B" stroke="white" stroke-width="0.666667"/>
<path fill-rule="evenodd" clip-rule="evenodd" d="M0 2.66667V4.4H3V6.33333C3 6.70152 3.29848 7 3.66667 7H4.04762C4.41581 7 4.71429 6.70152 4.71429 6.33333V4.4H7.47619C7.84438 4.4 8.14286 4.10152 8.14286 3.73333V3.33333C8.14286 2.96514 7.84438 2.66667 7.47619 2.66667H4.71429V0.5H3V2.66667H0Z" fill="url(#paint0_linear_343_2302)"/>
<path fill-rule="evenodd" clip-rule="evenodd" d="M0 3.1H3.42857V2.66667V0.5H4.28571V2.66667V3.1H7.71429V3.96667H4.28571V4.4V6.56667H3.42857V4.4V3.96667H0V3.1Z" fill="url(#paint1_linear_343_2302)"/>
<path fill-rule="evenodd" clip-rule="evenodd" d="M3.85725 11.1166L3.10152 11.5183L3.24585 10.6675L2.63446 10.0649L3.47939 9.94077L3.85725 9.16663L4.23511 9.94077L5.08003 10.0649L4.46864 10.6675L4.61297 11.5183L3.85725 11.1166Z" fill="white"/>
<path fill-rule="evenodd" clip-rule="evenodd" d="M12.8571 11.7667L12.2511 11.9462L12.4286 11.3333L12.2511 10.7205L12.8571 10.9L13.4632 10.7205L13.2857 11.3333L13.4632 11.9462L12.8571 11.7667Z" fill="white"/>
<path fill-rule="evenodd" clip-rule="evenodd" d="M12.8571 3.53328L12.2511 3.71277L12.4286 3.09994L12.2511 2.48712L12.8571 2.66661L13.4632 2.48712L13.2857 3.09994L13.4632 3.71277L12.8571 3.53328Z" fill="white"/>
<path fill-rule="evenodd" clip-rule="evenodd" d="M15.4287 6.13337L14.8226 6.31287L15.0001 5.70004L14.8226 5.08721L15.4287 5.26671L16.0348 5.08721L15.8572 5.70004L16.0348 6.31287L15.4287 6.13337Z" fill="white"/>
<path fill-rule="evenodd" clip-rule="evenodd" d="M10.2856 6.99995L9.67952 7.17944L9.85704 6.56662L9.67952 5.95379L10.2856 6.13328L10.8917 5.95379L10.7142 6.56662L10.8917 7.17944L10.2856 6.99995Z" fill="white"/>
<path fill-rule="evenodd" clip-rule="evenodd" d="M14.1429 8.08335L13.8399 8.1731L13.9286 7.86668L13.8399 7.56027L14.1429 7.65002L14.446 7.56027L14.3572 7.86668L14.446 8.1731L14.1429 8.08335Z" fill="white"/>
</g>
<defs>
<linearGradient id="paint0_linear_343_2302" x1="0" y1="0.5" x2="0" y2="7" gradientUnits="userSpaceOnUse">
<stop stop-color="white"/>
<stop offset="1" stop-color="#F0F0F0"/>
</linearGradient>
<linearGradient id="paint1_linear_343_2302" x1="0" y1="0.5" x2="0" y2="6.56667" gradientUnits="userSpaceOnUse">
<stop stop-color="#FF2E3B"/>
<stop offset="1" stop-color="#FC0D1B"/>
</linearGradient>
</defs>
</svg>
