<svg width="24" height="24" viewBox="0 0 24 24" fill="none" xmlns="http://www.w3.org/2000/svg">
<path fill-rule="evenodd" clip-rule="evenodd" d="M15.0472 4C14.7832 4 14.5536 4.10315 14.3814 4.27507L7.28699 11.3238C7.10332 11.5072 7 11.7479 7 12C7 12.2521 7.10332 12.5043 7.28699 12.6762L14.3814 19.7135C14.5536 19.8968 14.7832 20 15.0472 20C15.5867 20 16 19.5874 16 19.0487C16 18.7966 15.8852 18.5559 15.7245 18.3725L9.3074 12L15.7245 5.62751C15.8852 5.44413 16 5.2149 16 4.95129C16 4.41261 15.5867 4 15.0472 4Z" fill="#22222C"/>
</svg>
