<svg width="52" height="58" viewBox="0 0 52 58" fill="none" xmlns="http://www.w3.org/2000/svg">
<path fill-rule="evenodd" clip-rule="evenodd" d="M15.2422 0.666626C16.3468 0.666626 17.2422 1.56206 17.2422 2.66663V4.87769H34.7839V2.66663C34.7839 1.56206 35.6793 0.666626 36.7839 0.666626C37.8884 0.666626 38.7839 1.56206 38.7839 2.66663V4.92703C42.4475 5.17573 45.6318 6.36929 47.9862 8.61367C50.6677 11.1699 52.0128 14.8414 51.9999 19.2619V43.5932C51.9999 48.0137 50.6479 51.6891 47.9657 54.2501C45.2976 56.7977 41.5671 57.9998 37.2773 57.9998H14.7226C10.4347 57.9998 6.7014 56.7727 4.03266 54.1862C1.35398 51.59 0 47.8686 0 43.3915V19.2591C0 14.8355 1.3601 11.1656 4.04664 8.61173C6.40458 6.37026 9.58696 5.17631 13.2422 4.92719V2.66663C13.2422 1.56206 14.1376 0.666626 15.2422 0.666626ZM13.2422 8.93822C10.4269 9.17585 8.28518 10.1015 6.80255 11.5109C5.0856 13.143 4 15.6637 4 19.2591V43.3915C4 47.0594 5.09172 49.6422 6.81653 51.3139C8.55128 52.9952 11.1793 53.9998 14.7226 53.9998H37.2773C40.8434 53.9998 43.4742 53.0081 45.2034 51.3571C46.9185 49.7195 47.9999 47.1917 47.9999 43.5932V19.2591L47.9999 19.2529C48.011 15.656 46.9352 13.138 45.2262 11.5089C43.7496 10.1013 41.6093 9.17522 38.7839 8.93796V11.442C38.7839 12.5466 37.8884 13.442 36.7839 13.442C35.6793 13.442 34.7839 12.5466 34.7839 11.442V8.87769H17.2422V11.442C17.2422 12.5466 16.3468 13.442 15.2422 13.442C14.1376 13.442 13.2422 12.5466 13.2422 11.442V8.93822Z" fill="#9AD600"/>
</svg>
