<svg width="18" height="14" viewBox="0 0 18 14" fill="none" xmlns="http://www.w3.org/2000/svg">
<rect x="0.25" y="0.75" width="17.5" height="12.5" rx="1.75" fill="white" stroke="#F5F5F5" stroke-width="0.5"/>
<mask id="mask0_343_2658" style="mask-type:alpha" maskUnits="userSpaceOnUse" x="0" y="0" width="18" height="14">
<rect x="0.25" y="0.75" width="17.5" height="12.5" rx="1.75" fill="white" stroke="white" stroke-width="0.5"/>
</mask>
<g mask="url(#mask0_343_2658)">
<rect x="12.8572" y="0.5" width="5.14286" height="13" fill="#FF3131"/>
<path fill-rule="evenodd" clip-rule="evenodd" d="M0 13.5H5.14286V0.5H0V13.5Z" fill="#FF3131"/>
<path fill-rule="evenodd" clip-rule="evenodd" d="M10.5143 6.33552C10.3183 6.53371 9.9844 6.35664 10.0385 6.08319L10.2857 4.83334L9.42857 5.26667L9 3.96667L8.57143 5.26667L7.71429 4.83334L7.96151 6.08319C8.0156 6.35664 7.68168 6.53371 7.48567 6.33552C7.3756 6.22422 7.19583 6.22422 7.08576 6.33552L6.85714 6.56667L6 6.13334L6.42857 7.00001L6.23182 7.19895C6.10338 7.32882 6.10338 7.53787 6.23182 7.66774L7.28571 8.73334H8.57143L8.78571 10.0333H9.21429L9.42857 8.73334H10.7143L11.7682 7.66774C11.8966 7.53787 11.8966 7.32882 11.7682 7.19895L11.5714 7.00001L12 6.13334L11.1429 6.56667L10.9142 6.33552C10.8042 6.22422 10.6244 6.22422 10.5143 6.33552Z" fill="#FF3131"/>
</g>
</svg>
