<svg width="16" height="16" viewBox="0 0 16 16" fill="none" xmlns="http://www.w3.org/2000/svg">
<path fill-rule="evenodd" clip-rule="evenodd" d="M10 12.6667V10H12.6667L12.6673 12.6667H10ZM12.6667 8.66667H10C9.26467 8.66667 8.66667 9.26467 8.66667 10V12.6667C8.66667 13.402 9.26467 14 10 14H12.6667C13.402 14 14 13.402 14 12.6667V10C14 9.26467 13.402 8.66667 12.6667 8.66667ZM3.33333 12.6667V10H6L6.00067 12.6667H3.33333ZM6 8.66667H3.33333C2.598 8.66667 2 9.26467 2 10V12.6667C2 13.402 2.598 14 3.33333 14H6C6.73533 14 7.33333 13.402 7.33333 12.6667V10C7.33333 9.26467 6.73533 8.66667 6 8.66667ZM10 6V3.33333H12.6667L12.6673 6H10ZM12.6667 2H10C9.26467 2 8.66667 2.598 8.66667 3.33333V6C8.66667 6.73533 9.26467 7.33333 10 7.33333H12.6667C13.402 7.33333 14 6.73533 14 6V3.33333C14 2.598 13.402 2 12.6667 2ZM3.33333 6V3.33333H6L6.00067 6H3.33333ZM6 2H3.33333C2.598 2 2 2.598 2 3.33333V6C2 6.73533 2.598 7.33333 3.33333 7.33333H6C6.73533 7.33333 7.33333 6.73533 7.33333 6V3.33333C7.33333 2.598 6.73533 2 6 2Z" fill="#ABABAB"/>
<mask id="mask0_24_5246" style="mask-type:alpha" maskUnits="userSpaceOnUse" x="2" y="2" width="12" height="12">
<path fill-rule="evenodd" clip-rule="evenodd" d="M10 12.6667V10H12.6667L12.6673 12.6667H10ZM12.6667 8.66667H10C9.26467 8.66667 8.66667 9.26467 8.66667 10V12.6667C8.66667 13.402 9.26467 14 10 14H12.6667C13.402 14 14 13.402 14 12.6667V10C14 9.26467 13.402 8.66667 12.6667 8.66667ZM3.33333 12.6667V10H6L6.00067 12.6667H3.33333ZM6 8.66667H3.33333C2.598 8.66667 2 9.26467 2 10V12.6667C2 13.402 2.598 14 3.33333 14H6C6.73533 14 7.33333 13.402 7.33333 12.6667V10C7.33333 9.26467 6.73533 8.66667 6 8.66667ZM10 6V3.33333H12.6667L12.6673 6H10ZM12.6667 2H10C9.26467 2 8.66667 2.598 8.66667 3.33333V6C8.66667 6.73533 9.26467 7.33333 10 7.33333H12.6667C13.402 7.33333 14 6.73533 14 6V3.33333C14 2.598 13.402 2 12.6667 2ZM3.33333 6V3.33333H6L6.00067 6H3.33333ZM6 2H3.33333C2.598 2 2 2.598 2 3.33333V6C2 6.73533 2.598 7.33333 3.33333 7.33333H6C6.73533 7.33333 7.33333 6.73533 7.33333 6V3.33333C7.33333 2.598 6.73533 2 6 2Z" fill="white"/>
</mask>
<g mask="url(#mask0_24_5246)">
</g>
</svg>
