<svg width="16" height="16" viewBox="0 0 16 16" fill="none" xmlns="http://www.w3.org/2000/svg">
<path d="M3.6335 3.40666L1.3335 12C1.3335 12.3536 1.47397 12.6927 1.72402 12.9428C1.97407 13.1928 2.31321 13.3333 2.66683 13.3333H13.3335C13.6871 13.3333 14.0263 13.1928 14.2763 12.9428C14.5264 12.6927 14.6668 12.3536 14.6668 12L12.3668 3.40666C12.2564 3.18451 12.0863 2.99757 11.8755 2.86684C11.6647 2.73612 11.4216 2.66679 11.1735 2.66666H4.82683C4.57877 2.66679 4.33567 2.73612 4.12486 2.86684C3.91405 2.99757 3.74388 3.18451 3.6335 3.40666Z" stroke="#ABABAB" stroke-width="2" stroke-linecap="round" stroke-linejoin="round"/>
<path d="M2.6665 7.33334L13.3332 7.33334" stroke="#ABABAB" stroke-width="2" stroke-linecap="round" stroke-linejoin="round"/>
</svg>
