<svg width="18" height="14" viewBox="0 0 18 14" fill="none" xmlns="http://www.w3.org/2000/svg">
<rect y="0.5" width="18" height="13" rx="2" fill="white"/>
<mask id="mask0_343_2087" style="mask-type:alpha" maskUnits="userSpaceOnUse" x="0" y="0" width="18" height="14">
<rect y="0.5" width="18" height="13" rx="2" fill="white"/>
</mask>
<g mask="url(#mask0_343_2087)">
<rect y="0.5" width="18" height="13" fill="#30C6E0"/>
<path fill-rule="evenodd" clip-rule="evenodd" d="M8.9999 9.60002C10.4201 9.60002 11.5713 8.43597 11.5713 7.00002C11.5713 5.56408 10.4201 4.40002 8.9999 4.40002C7.57973 4.40002 6.42847 5.56408 6.42847 7.00002C6.42847 8.43597 7.57973 9.60002 8.9999 9.60002Z" fill="#FFCD4B"/>
<path fill-rule="evenodd" clip-rule="evenodd" d="M7.9509 11.6471L8.99993 10.0638L10.049 11.6471L10.3147 9.76037L11.9392 10.7267L11.369 8.91022L13.2474 9.06812L11.9541 7.68171L13.7142 6.99994L11.9541 6.31817L13.2474 4.93176L11.369 5.08966L11.9392 3.27321L10.3147 4.23951L10.049 2.35278L8.99993 3.93609L7.9509 2.35278L7.68518 4.23951L6.06062 3.27321L6.63084 5.08966L4.75251 4.93176L6.04572 6.31817L4.28564 6.99994L6.04572 7.68171L4.75251 9.06812L6.63084 8.91022L6.06062 10.7267L7.68518 9.76037L7.9509 11.6471ZM11.9999 6.99994C11.9999 8.6752 10.6568 10.0333 8.99993 10.0333C7.34308 10.0333 5.99993 8.6752 5.99993 6.99994C5.99993 5.32468 7.34308 3.96661 8.99993 3.96661C10.6568 3.96661 11.9999 5.32468 11.9999 6.99994Z" fill="#FFCD4B"/>
<path fill-rule="evenodd" clip-rule="evenodd" d="M0.857178 1.70003C0.857178 1.51594 1.00642 1.3667 1.19051 1.3667H1.38099C1.56508 1.3667 1.71432 1.51594 1.71432 1.70003V1.90003C1.71432 2.08413 1.56508 2.23337 1.38099 2.23337H1.19051C1.00642 2.23337 0.857178 2.08413 0.857178 1.90003V1.70003ZM0.857178 3.43337C0.857178 3.24927 1.00642 3.10003 1.19051 3.10003H1.38099C1.56508 3.10003 1.71432 3.24927 1.71432 3.43337V3.63337C1.71432 3.81746 1.56508 3.9667 1.38099 3.9667H1.19051C1.00642 3.9667 0.857178 3.81746 0.857178 3.63337V3.43337ZM1.19051 4.83337C1.00642 4.83337 0.857178 4.9826 0.857178 5.1667V5.3667C0.857178 5.55079 1.00642 5.70003 1.19051 5.70003H1.38099C1.56508 5.70003 1.71432 5.55079 1.71432 5.3667V5.1667C1.71432 4.9826 1.56508 4.83337 1.38099 4.83337H1.19051ZM0.857178 6.90003C0.857178 6.71594 1.00642 6.5667 1.19051 6.5667H1.38099C1.56508 6.5667 1.71432 6.71594 1.71432 6.90003V7.10003C1.71432 7.28413 1.56508 7.43337 1.38099 7.43337H1.19051C1.00642 7.43337 0.857178 7.28413 0.857178 7.10003V6.90003ZM1.19051 8.30003C1.00642 8.30003 0.857178 8.44927 0.857178 8.63337V8.83337C0.857178 9.01746 1.00642 9.1667 1.19051 9.1667H1.38099C1.56508 9.1667 1.71432 9.01746 1.71432 8.83337V8.63337C1.71432 8.44927 1.56508 8.30003 1.38099 8.30003H1.19051ZM0.857178 10.3667C0.857178 10.1826 1.00642 10.0334 1.19051 10.0334H1.38099C1.56508 10.0334 1.71432 10.1826 1.71432 10.3667V10.5667C1.71432 10.7508 1.56508 10.9 1.38099 10.9H1.19051C1.00642 10.9 0.857178 10.7508 0.857178 10.5667V10.3667ZM1.19051 11.7667C1.00642 11.7667 0.857178 11.9159 0.857178 12.1V12.3C0.857178 12.4841 1.00642 12.6334 1.19051 12.6334H1.38099C1.56508 12.6334 1.71432 12.4841 1.71432 12.3V12.1C1.71432 11.9159 1.56508 11.7667 1.38099 11.7667H1.19051ZM1.71432 11.2334C1.71432 11.0493 1.86356 10.9 2.04765 10.9H2.23813C2.42223 10.9 2.57146 11.0493 2.57146 11.2334V11.4334C2.57146 11.6175 2.42222 11.7667 2.23813 11.7667H2.04765C1.86356 11.7667 1.71432 11.6175 1.71432 11.4334V11.2334ZM2.04765 9.1667C1.86356 9.1667 1.71432 9.31594 1.71432 9.50003V9.70003C1.71432 9.88413 1.86356 10.0334 2.04765 10.0334H2.23813C2.42222 10.0334 2.57146 9.88413 2.57146 9.70003V9.50003C2.57146 9.31594 2.42223 9.1667 2.23813 9.1667H2.04765ZM1.71432 7.7667C1.71432 7.5826 1.86356 7.43337 2.04765 7.43337H2.23813C2.42223 7.43337 2.57146 7.5826 2.57146 7.7667V7.9667C2.57146 8.15079 2.42222 8.30003 2.23813 8.30003H2.04765C1.86356 8.30003 1.71432 8.15079 1.71432 7.9667V7.7667ZM2.04765 5.70003C1.86356 5.70003 1.71432 5.84927 1.71432 6.03337V6.23337C1.71432 6.41746 1.86356 6.5667 2.04765 6.5667H2.23813C2.42222 6.5667 2.57146 6.41746 2.57146 6.23337V6.03337C2.57146 5.84927 2.42223 5.70003 2.23813 5.70003H2.04765ZM1.71432 4.30003C1.71432 4.11594 1.86356 3.9667 2.04765 3.9667H2.23813C2.42223 3.9667 2.57146 4.11594 2.57146 4.30003V4.50003C2.57146 4.68413 2.42222 4.83337 2.23813 4.83337H2.04765C1.86356 4.83337 1.71432 4.68413 1.71432 4.50003V4.30003ZM2.04765 2.23337C1.86356 2.23337 1.71432 2.3826 1.71432 2.5667V2.7667C1.71432 2.95079 1.86356 3.10003 2.04765 3.10003H2.23813C2.42222 3.10003 2.57146 2.95079 2.57146 2.7667V2.5667C2.57146 2.3826 2.42223 2.23337 2.23813 2.23337H2.04765Z" fill="#FFCD4B"/>
</g>
</svg>
