<svg width="18" height="14" viewBox="0 0 18 14" fill="none" xmlns="http://www.w3.org/2000/svg">
<rect y="0.5" width="18" height="13" rx="2" fill="white"/>
<mask id="mask0_343_2944" style="mask-type:alpha" maskUnits="userSpaceOnUse" x="0" y="0" width="18" height="14">
<rect y="0.5" width="18" height="13" rx="2" fill="white"/>
</mask>
<g mask="url(#mask0_343_2944)">
<path fill-rule="evenodd" clip-rule="evenodd" d="M18 0.5H8.57143V1.36667H18V0.5ZM18 2.23333H8.57143V3.1H18V2.23333ZM8.57143 3.96667H18V4.83333H8.57143V3.96667ZM18 5.7H8.57143V6.56667H18V5.7ZM0 7.43333H18V8.3H0V7.43333ZM18 9.16667H0V10.0333H18V9.16667ZM0 10.9H18V11.7667H0V10.9ZM18 12.6333H0V13.5H18V12.6333Z" fill="#E1244A"/>
<rect y="0.5" width="10.2857" height="6.93333" fill="#0C3F8E"/>
<path fill-rule="evenodd" clip-rule="evenodd" d="M4.28578 6.5667C4.89335 6.5667 5.45171 6.35364 5.89176 5.99739C5.65865 6.08531 5.40634 6.13337 5.14293 6.13337C3.95946 6.13337 3.00007 5.16332 3.00007 3.9667C3.00007 2.77008 3.95946 1.80003 5.14293 1.80003C5.40634 1.80003 5.65865 1.84809 5.89176 1.93601C5.45171 1.57976 4.89335 1.3667 4.28578 1.3667C2.86562 1.3667 1.71436 2.53076 1.71436 3.9667C1.71436 5.40264 2.86562 6.5667 4.28578 6.5667ZM6.11341 5.52838L6.85721 4.67737L7.60101 5.52838L7.40673 4.40979L8.52852 4.3524L7.54245 3.80856L8.1975 2.88598L7.16217 3.32641L6.85721 2.23337L6.55225 3.32641L5.51693 2.88598L6.17198 3.80856L5.18591 4.3524L6.3077 4.40979L6.11341 5.52838Z" fill="#FFD34F"/>
</g>
</svg>
