<svg width="24" height="24" viewBox="0 0 24 24" fill="none" xmlns="http://www.w3.org/2000/svg">
<path d="M20.5892 9.39678L20.5892 9.3968L20.5939 9.40145C21.0165 9.81646 21.2498 10.3819 21.2498 10.9864H21.2497L21.2498 10.9957C21.2573 11.5933 21.0264 12.1621 20.605 12.5902L20.5946 12.6007L20.5941 12.6013L20.5792 12.6159L21.1094 13.1464L20.5792 12.6159L19.869 13.3259C19.4496 13.7451 19.209 14.3154 19.209 14.9174V15.9464C19.209 17.1922 18.1943 18.2074 16.9479 18.2074H15.9176C15.3176 18.2074 14.747 18.446 14.3269 18.8659L13.6067 19.5859L13.6062 19.5864C13.1642 20.029 12.5883 20.2464 12.0061 20.2464C11.4242 20.2464 10.8465 20.0289 10.4034 19.5947L9.6757 18.8663L9.67534 18.8659C9.25526 18.446 8.68467 18.2074 8.08472 18.2074H7.05435C5.80803 18.2074 4.79326 17.1922 4.79326 15.9464V14.9174C4.79326 14.3132 4.5515 13.7487 4.14255 13.3253L4.13616 13.3187L4.12961 13.3122L3.4112 12.6041C2.53401 11.7262 2.52752 10.2906 3.40428 9.40657C3.40455 9.40629 3.40482 9.40602 3.40509 9.40575L4.13333 8.67678C4.13336 8.67675 4.1334 8.67672 4.13343 8.67668C4.55443 8.25579 4.79326 7.68492 4.79326 7.07635V6.05635C4.79326 4.81115 5.80738 3.79735 7.05435 3.79735H8.08472C8.68722 3.79735 9.25708 3.55489 9.67534 3.13678L10.3956 2.41678L10.3976 2.41475C11.2735 1.53242 12.709 1.52889 13.5981 2.40916C13.5984 2.40945 13.5986 2.40974 13.5989 2.41003L14.3269 3.13678C14.3271 3.1369 14.3272 3.13702 14.3273 3.13714C14.7455 3.55503 15.3152 3.79735 15.9176 3.79735H16.9479C18.1949 3.79735 19.209 4.81115 19.209 6.05635V7.08735C19.209 7.68788 19.45 8.25794 19.869 8.67678L20.5892 9.39678ZM20.601 12.5946L20.6008 12.5948L20.601 12.5946Z" stroke="#22222C" stroke-width="1.5"/>
<path d="M13.8374 11.4452L13.8374 11.4452L13.8333 11.4494C13.5558 11.7303 13.4368 12.1289 13.4993 12.5071L13.4993 12.5071L13.5001 12.5118L13.7525 13.9824L12.5366 13.3147L12.5299 13.3111L12.5232 13.3076C12.3885 13.2371 12.2 13.167 11.9756 13.167H11.8673H11.8279L11.7887 13.1711C11.6051 13.1905 11.462 13.2644 11.4253 13.2833C11.4233 13.2844 11.4216 13.2852 11.4202 13.2859L11.4085 13.2919L11.3971 13.2982L10.1912 13.9633L10.4428 12.4989L10.4429 12.4989L10.4444 12.4894C10.5052 12.1064 10.3831 11.7214 10.1208 11.4442L10.1209 11.4441L10.1117 11.4347L9.04961 10.351L10.4692 10.1342C10.8834 10.0815 11.2256 9.81714 11.3969 9.45636L11.397 9.45637L11.4 9.44988L12.0019 8.1506L12.6155 9.45205C12.7841 9.81494 13.1153 10.0638 13.4994 10.1301L13.5066 10.1313L13.5137 10.1324L14.9368 10.3497L13.8374 11.4452ZM15.3363 9.9517L15.3337 9.9543L15.3363 9.95171L15.3363 9.9517Z" stroke="#22222C" stroke-width="1.5"/>
<path d="M3.88319 19C4.1528 19.4399 4.52429 19.7627 5.03424 19.913C5.30446 19.9924 5.59787 20.0279 5.88273 20.0401C6.35364 20.06 6.82638 20.0539 7.2979 20.0428C7.57789 20.0362 7.79565 20.1333 8 20.3102C7.97621 20.3535 7.95547 20.3962 7.92985 20.4367C7.22287 21.55 6.5159 22.6633 5.80709 23.7755C5.76561 23.8404 5.72047 23.9103 5.65764 23.9546C5.51369 24.0556 5.35021 23.9829 5.28677 23.7877C5.10072 23.2119 4.92017 22.6344 4.73778 22.0575C4.64262 21.7574 4.58467 21.7253 4.25162 21.8007C3.61845 21.9438 2.98711 22.0941 2.35151 22.2267C2.25147 22.2472 2.09714 22.2184 2.03248 22.1568C1.98185 22.1086 1.99466 21.9549 2.04163 21.8806C2.62661 20.9431 3.22318 20.0112 3.81731 19.0782C3.83195 19.0549 3.85208 19.0366 3.88319 19Z" fill="#22222C"/>
<path d="M20.1475 19C20.183 19.0486 20.2221 19.0978 20.2551 19.1497C20.8154 20.0353 21.3787 20.9185 21.928 21.8097C21.9897 21.9097 22.0252 22.0723 21.9787 22.1672C21.9072 22.3136 21.7329 22.2499 21.591 22.217C20.9793 22.0756 20.3671 21.937 19.7542 21.799C19.4233 21.7242 19.3695 21.7549 19.2729 22.0644C19.0992 22.6187 18.9261 23.1729 18.7511 23.7265C18.7108 23.8534 18.6759 24.0199 18.4973 23.9981C18.389 23.9852 18.2618 23.8813 18.2013 23.7869C17.463 22.6343 16.7358 21.4761 16 20.3101C16.1841 20.1381 16.3884 20.0313 16.66 20.0313C17.2545 20.0313 17.8502 20.0442 18.4423 20.0073C19.1493 19.9632 19.6863 19.6302 20.0631 19.0821C20.079 19.0587 20.0967 19.0363 20.1151 19.014C20.1187 19.0112 20.1273 19.0095 20.1475 19Z" fill="#22222C"/>
</svg>
