<svg width="24" height="24" viewBox="0 0 24 24" fill="none" xmlns="http://www.w3.org/2000/svg">
<path fill-rule="evenodd" clip-rule="evenodd" d="M20.3992 8.14635L21.1194 8.86635C21.6897 9.42636 21.9998 10.1864 21.9998 10.9864C22.0098 11.7864 21.6997 12.5474 21.1395 13.1164C21.1328 13.1237 21.1261 13.1301 21.1194 13.1366C21.1161 13.1398 21.1128 13.143 21.1094 13.1464L20.3992 13.8564C20.1191 14.1364 19.959 14.5164 19.959 14.9174V15.9464C19.959 17.6064 18.6085 18.9574 16.9479 18.9574H15.9176C15.5174 18.9574 15.1373 19.1164 14.8572 19.3964L14.1369 20.1164C13.5467 20.7074 12.7764 20.9964 12.0061 20.9964C11.2359 20.9964 10.4656 20.7074 9.87537 20.1274L9.14511 19.3964C8.865 19.1164 8.48487 18.9574 8.08472 18.9574H7.05435C5.39375 18.9574 4.04326 17.6064 4.04326 15.9464V14.9174C4.04326 14.5164 3.8832 14.1364 3.6031 13.8464L2.88284 13.1364C1.71241 11.9674 1.70241 10.0564 2.87283 8.87735L3.6031 8.14635C3.8832 7.86635 4.04326 7.48635 4.04326 7.07635V6.05635C4.04326 4.39635 5.39375 3.04735 7.05435 3.04735H8.08472C8.48487 3.04735 8.865 2.88635 9.14511 2.60635L9.86537 1.88635C11.0358 0.707355 12.9465 0.707355 14.1269 1.87735L14.8572 2.60635C15.1373 2.88635 15.5174 3.04735 15.9176 3.04735H16.9479C18.6085 3.04735 19.959 4.39635 19.959 6.05635V7.08735C19.959 7.48635 20.1191 7.86635 20.3992 8.14635ZM14.2394 12.3849C14.215 12.2371 14.263 12.0818 14.367 11.9765L15.8627 10.4861C15.9867 10.364 16.0307 10.1783 15.9787 10.0103C15.9231 9.84192 15.7827 9.71982 15.6147 9.69456L13.6271 9.391C13.4831 9.36616 13.3591 9.27353 13.2951 9.13459L12.4077 7.25219C12.3397 7.11326 12.2077 7.01684 12.0558 7H11.8874L11.8194 7.02947L11.7758 7.04631L11.7748 7.047C11.7508 7.0636 11.7272 7.07986 11.7114 7.10105L11.6758 7.13052C11.6434 7.16378 11.6154 7.20209 11.5954 7.24419L10.7196 9.13459C10.6516 9.27774 10.5196 9.37416 10.3676 9.391L8.37999 9.69456C8.21202 9.72361 8.07644 9.84571 8.02445 10.0103C7.96806 10.1783 8.01205 10.3598 8.13203 10.4861L9.57618 11.9597C9.67976 12.0691 9.72776 12.2207 9.70376 12.3719L9.34782 14.4433C9.30823 14.6917 9.4638 14.9279 9.70376 14.9784C9.79974 14.9953 9.89973 14.9784 9.98771 14.9321L11.7594 13.9549C11.7918 13.9385 11.8274 13.9212 11.8674 13.917H11.9758C12.0434 13.917 12.1113 13.9385 12.1757 13.9722L13.947 14.9447C14.099 15.0289 14.279 15.0163 14.4149 14.9111C14.5553 14.8096 14.6233 14.6332 14.5949 14.4563L14.2394 12.3849Z" fill="#22222C"/>
<path d="M3.88319 19C4.1528 19.4399 4.52429 19.7627 5.03424 19.913C5.30446 19.9924 5.59787 20.0279 5.88273 20.0401C6.35364 20.06 6.82638 20.0539 7.2979 20.0428C7.57789 20.0362 7.79565 20.1333 8 20.3102C7.97621 20.3535 7.95547 20.3962 7.92985 20.4367C7.22287 21.55 6.5159 22.6633 5.80709 23.7755C5.76561 23.8404 5.72047 23.9103 5.65764 23.9546C5.51369 24.0556 5.35021 23.9829 5.28677 23.7877C5.10072 23.2119 4.92017 22.6344 4.73778 22.0575C4.64262 21.7574 4.58467 21.7253 4.25162 21.8007C3.61845 21.9438 2.98711 22.0941 2.35151 22.2267C2.25147 22.2472 2.09714 22.2184 2.03248 22.1568C1.98185 22.1086 1.99466 21.9549 2.04163 21.8806C2.62661 20.9431 3.22318 20.0112 3.81731 19.0782C3.83195 19.0549 3.85208 19.0366 3.88319 19Z" fill="#22222C"/>
<path d="M20.1475 19C20.183 19.0486 20.2221 19.0978 20.2551 19.1497C20.8154 20.0353 21.3787 20.9185 21.928 21.8097C21.9897 21.9097 22.0252 22.0723 21.9787 22.1672C21.9072 22.3136 21.7329 22.2499 21.591 22.217C20.9793 22.0756 20.3671 21.937 19.7542 21.799C19.4233 21.7242 19.3695 21.7549 19.2729 22.0644C19.0992 22.6187 18.9261 23.1729 18.7511 23.7265C18.7108 23.8534 18.6759 24.0199 18.4973 23.9981C18.389 23.9852 18.2618 23.8813 18.2013 23.7869C17.463 22.6343 16.7358 21.4761 16 20.3101C16.1841 20.1381 16.3884 20.0313 16.66 20.0313C17.2545 20.0313 17.8502 20.0442 18.4423 20.0073C19.1493 19.9632 19.6863 19.6302 20.0631 19.0821C20.079 19.0587 20.0967 19.0363 20.1151 19.014C20.1187 19.0112 20.1273 19.0095 20.1475 19Z" fill="#22222C"/>
</svg>
