<svg width="13" height="13" viewBox="0 0 13 13" fill="none" xmlns="http://www.w3.org/2000/svg">
<path fill-rule="evenodd" clip-rule="evenodd" d="M9.19096 8.11094C9.81426 7.26612 10.1827 6.22175 10.1827 5.09133C10.1827 2.27947 7.90319 0 5.09133 0C2.27947 0 0 2.27947 0 5.09133C0 7.90319 2.27947 10.1827 5.09133 10.1827C6.22174 10.1827 7.26611 9.81426 8.11093 9.19097L11.6753 12.7553C11.9735 13.0536 12.4571 13.0536 12.7553 12.7553C13.0536 12.4571 13.0536 11.9735 12.7553 11.6753L9.19096 8.11094ZM5.09133 9.16439C7.34082 9.16439 9.16439 7.34082 9.16439 5.09133C9.16439 2.84184 7.34082 1.01827 5.09133 1.01827C2.84184 1.01827 1.01827 2.84184 1.01827 5.09133C1.01827 7.34082 2.84184 9.16439 5.09133 9.16439Z" fill="#686868"/>
</svg>
