<svg width="18" height="14" viewBox="0 0 18 14" fill="none" xmlns="http://www.w3.org/2000/svg">
<rect x="0.25" y="0.75" width="17.5" height="12.5" rx="1.75" fill="white" stroke="#F5F5F5" stroke-width="0.5"/>
<mask id="mask0_343_2827" style="mask-type:alpha" maskUnits="userSpaceOnUse" x="0" y="0" width="18" height="14">
<rect x="0.25" y="0.75" width="17.5" height="12.5" rx="1.75" fill="white" stroke="white" stroke-width="0.5"/>
</mask>
<g mask="url(#mask0_343_2827)">
<path fill-rule="evenodd" clip-rule="evenodd" d="M9 10.0333C10.6569 10.0333 12 8.67527 12 7.00001C12 5.32474 10.6569 3.96667 9 3.96667C7.34315 3.96667 6 5.32474 6 7.00001C6 8.67527 7.34315 10.0333 9 10.0333Z" fill="#E01B41"/>
<mask id="mask1_343_2827" style="mask-type:alpha" maskUnits="userSpaceOnUse" x="6" y="3" width="6" height="8">
<path fill-rule="evenodd" clip-rule="evenodd" d="M9 10.0333C10.6569 10.0333 12 8.67527 12 7.00001C12 5.32474 10.6569 3.96667 9 3.96667C7.34315 3.96667 6 5.32474 6 7.00001C6 8.67527 7.34315 10.0333 9 10.0333Z" fill="white"/>
</mask>
<g mask="url(#mask1_343_2827)">
<path fill-rule="evenodd" clip-rule="evenodd" d="M6.00009 7.43337C6.85724 8.24587 8.14295 8.73337 9.00009 7.43337C9.85724 6.13337 11.5715 6.13337 12.0001 7.43337C12.4287 8.73337 12.0001 10.0334 12.0001 10.0334H6.00009C6.00009 10.0334 5.14295 6.62087 6.00009 7.43337Z" fill="#0E4B9C"/>
</g>
<path opacity="0.75" fill-rule="evenodd" clip-rule="evenodd" d="M3.91016 2.91367C4.00145 2.7538 4.20433 2.69944 4.36332 2.79225L4.52988 2.88948C4.68887 2.98229 4.74375 3.18713 4.65247 3.347L3.69733 5.01973C3.60604 5.1796 3.40316 5.23396 3.24417 5.14115L3.07761 5.04391C2.91862 4.9511 2.86374 4.74627 2.95502 4.5864L3.91016 2.91367ZM13.4699 2.88948C13.3109 2.98229 13.256 3.18713 13.3473 3.347L14.3025 5.01973C14.3938 5.1796 14.5966 5.23396 14.7556 5.14115L14.9222 5.04391C15.0812 4.9511 15.1361 4.74627 15.0448 4.5864L14.0896 2.91367C13.9983 2.7538 13.7955 2.69944 13.6365 2.79225L13.4699 2.88948ZM12.3565 3.53948C12.1975 3.63229 12.1426 3.83713 12.2339 3.997L13.189 5.66973C13.2803 5.8296 13.4832 5.88396 13.6422 5.79115L13.8087 5.69391C13.9677 5.6011 14.0226 5.39627 13.9313 5.2364L12.9762 3.56367C12.8849 3.4038 12.682 3.34944 12.523 3.44225L12.3565 3.53948ZM2.95502 9.41366C2.86374 9.2538 2.91862 9.04896 3.07761 8.95615L3.24417 8.85891C3.40316 8.7661 3.60604 8.82046 3.69733 8.98033L4.65247 10.6531C4.74375 10.8129 4.68887 11.0178 4.52988 11.1106L4.36332 11.2078C4.20433 11.3006 4.00145 11.2463 3.91016 11.0864L2.95502 9.41366ZM4.19107 8.30615C4.03208 8.39896 3.9772 8.6038 4.06848 8.76366L5.02362 10.4364C5.11491 10.5963 5.3178 10.6506 5.47678 10.5578L5.64335 10.4606C5.80233 10.3678 5.85722 10.1629 5.76593 10.0031L4.81079 8.33033C4.71951 8.17046 4.51662 8.1161 4.35763 8.20891L4.19107 8.30615ZM13.189 8.33033C13.2803 8.17046 13.4832 8.1161 13.6422 8.20891L13.8087 8.30615C13.9677 8.39896 14.0226 8.6038 13.9313 8.76367L12.9762 10.4364C12.8849 10.5963 12.682 10.6506 12.523 10.5578L12.3565 10.4606C12.1975 10.3678 12.1426 10.1629 12.2339 10.0031L13.189 8.33033ZM14.7556 8.85892C14.5966 8.7661 14.3938 8.82046 14.3025 8.98033L13.3473 10.6531C13.256 10.8129 13.3109 11.0178 13.4699 11.1106L13.6365 11.2078C13.7955 11.3006 13.9983 11.2463 14.0896 11.0864L15.0448 9.41367C15.1361 9.2538 15.0812 9.04896 14.9222 8.95615L14.7556 8.85892ZM5.47678 3.44225C5.31779 3.34944 5.11491 3.4038 5.02362 3.56366L4.06848 5.2364C3.9772 5.39627 4.03208 5.6011 4.19107 5.69391L4.35763 5.79115C4.51662 5.88396 4.7195 5.8296 4.81079 5.66973L5.76593 3.997C5.85722 3.83713 5.80233 3.63229 5.64335 3.53948L5.47678 3.44225Z" fill="#262626"/>
</g>
</svg>
