<svg width="24" height="24" viewBox="0 0 24 24" fill="none" xmlns="http://www.w3.org/2000/svg">
<path d="M5.25339 22.9981C4.79951 22.795 4.68604 22.4323 4.69077 21.9694C4.7059 20.3942 4.69549 18.819 4.69739 17.2439C4.69739 16.7977 4.87894 16.5212 5.24677 16.4155C5.35551 16.3839 5.47654 16.3812 5.59191 16.3812C6.6207 16.3784 7.64949 16.3793 8.68868 16.3793C8.77473 16.1595 8.84471 15.935 8.94777 15.7262C9.37707 14.8496 10.0617 14.2531 11.0148 13.9711C11.1841 13.921 11.2465 13.8468 11.2361 13.6715C11.22 13.4006 11.2257 13.1269 11.2342 12.8551C11.238 12.7318 11.1964 12.6742 11.0734 12.6511C9.68533 12.382 8.68963 11.5666 7.91993 10.4479C7.78849 10.2568 7.658 10.1612 7.40931 10.1278C5.46898 9.86066 3.93241 8.45155 3.50974 6.5582C3.43125 6.20477 3.40761 5.83556 3.3991 5.47284C3.38303 4.7066 3.39248 3.94036 3.39437 3.17504C3.39627 2.55722 3.67521 2.28356 4.30024 2.2817C4.78911 2.28078 5.27797 2.2817 5.76684 2.28078C5.83776 2.28078 5.90868 2.27521 6.00323 2.27057C6.00323 2.10174 6.0004 1.94589 6.00418 1.79097C6.01458 1.31137 6.33135 1.00154 6.81927 1.00154C10.2725 0.999682 13.7249 0.999682 17.1762 1.00061C17.6641 1.00061 17.9819 1.31045 17.9913 1.79097C17.9942 1.94682 17.9923 2.10174 17.9923 2.2817C18.4225 2.2817 18.8291 2.28078 19.2357 2.2817C19.4541 2.28263 19.6735 2.27707 19.8919 2.28913C20.2664 2.30953 20.5642 2.57206 20.5822 2.94034C20.6077 3.47653 20.6134 4.01364 20.5973 4.54983C20.5775 5.22052 20.6115 5.90699 20.4763 6.55728C20.0678 8.52576 18.4471 9.92096 16.4141 10.1584C16.3205 10.1696 16.2136 10.2633 16.1559 10.3468C15.6207 11.1316 14.9853 11.8171 14.1106 12.2392C13.7485 12.4136 13.3513 12.5193 12.9646 12.6409C12.8313 12.6826 12.7518 12.716 12.7604 12.8783C12.7764 13.1641 12.7566 13.4516 12.7708 13.7373C12.7745 13.8069 12.8417 13.9145 12.9022 13.934C14.1163 14.3097 14.9012 15.0936 15.2614 16.2893C15.2699 16.3162 15.2841 16.3422 15.3011 16.3821C16.0264 16.3821 16.7554 16.3821 17.4845 16.3821C17.8343 16.3821 18.1852 16.3784 18.535 16.3839C18.9246 16.3904 19.2121 16.6353 19.2764 17.012C19.2934 17.1103 19.2972 17.2114 19.2981 17.3107C19.2991 18.8645 19.2896 20.4183 19.3047 21.9722C19.3095 22.4341 19.195 22.7968 18.7421 23C14.2468 22.9981 9.74963 22.9981 5.25339 22.9981ZM7.54359 2.51176C7.56817 2.95333 7.58708 3.37448 7.6145 3.79564C7.6911 4.99696 7.85657 6.18529 8.18942 7.34578C8.49673 8.41445 8.92319 9.42374 9.70802 10.2549C10.9477 11.5666 13.0384 11.5694 14.2799 10.2633C14.9995 9.5063 15.4156 8.59348 15.7248 7.62408C16.0481 6.61015 16.2193 5.56654 16.3271 4.51365C16.3942 3.85408 16.4169 3.18988 16.4595 2.51269C13.4781 2.51176 10.5269 2.51176 7.54359 2.51176ZM17.7578 17.8803C17.6528 17.8803 17.5734 17.8803 17.4939 17.8803C16.589 17.8803 15.6841 17.8803 14.7792 17.8803C14.1598 17.8803 13.8837 17.627 13.8393 17.0268C13.7674 16.0546 13.009 15.3301 11.9963 15.3153C11.0252 15.3014 10.2243 16.0667 10.1591 17.0333C10.1193 17.6196 9.83662 17.8793 9.23523 17.8793C8.31518 17.8803 7.39608 17.8793 6.47602 17.8803C6.39943 17.8803 6.32284 17.8877 6.24908 17.8905C6.24908 19.1048 6.24908 20.295 6.24908 21.4824C10.0957 21.4824 13.9234 21.4824 17.7587 21.4824C17.7578 20.281 17.7578 19.0946 17.7578 17.8803ZM6.93558 8.47474C6.41267 6.91628 6.18951 5.36616 6.0751 3.7975C5.68268 3.7975 5.31485 3.7975 4.94986 3.7975C4.94986 4.52756 4.8865 5.24928 4.96404 5.95523C5.09358 7.13613 5.78008 7.95618 6.93558 8.47474ZM17.9195 3.79193C17.8117 5.38193 17.5762 6.92834 17.075 8.44506C18.1303 8.08977 19.0154 6.93483 19.0485 5.87359C19.0693 5.2298 19.0627 4.58508 19.0674 3.94036C19.0674 3.89304 19.056 3.84573 19.0494 3.791C18.6721 3.79193 18.31 3.79193 17.9195 3.79193Z" fill="#22222C"/>
<path d="M11.9756 20.4387C11.1444 20.4387 10.3132 20.4424 9.48208 20.4369C8.94026 20.4331 8.6112 20.1233 8.62727 19.6493C8.63862 19.3116 8.89393 19.0166 9.23434 18.96C9.34875 18.9406 9.466 18.935 9.58231 18.935C11.1936 18.9331 12.8048 18.9331 14.4152 18.935C14.5315 18.935 14.6487 18.9406 14.7631 18.96C15.1263 19.0222 15.3778 19.3404 15.3683 19.7161C15.3598 20.0723 15.0913 20.3933 14.7282 20.4164C14.2856 20.4452 13.8393 20.4359 13.3958 20.4378C12.923 20.4415 12.4493 20.4396 11.9756 20.4387Z" fill="#22222C"/>
</svg>
