<svg width="24" height="24" viewBox="0 0 24 24" fill="none" xmlns="http://www.w3.org/2000/svg">
<path d="M6.17551 23.0005C5.78266 22.8391 5.63677 22.5339 5.6438 22.0942C5.65962 21.1136 5.64819 20.1331 5.64907 19.1534C5.64995 18.6209 5.92327 18.3269 6.42598 18.325C7.32067 18.3222 8.21623 18.325 9.11091 18.3241C9.57847 18.3241 9.75775 18.145 9.79115 17.6506C9.86586 16.5272 10.5558 15.6885 11.5919 15.4622C12.8461 15.1885 14.1187 16.2173 14.2013 17.5643C14.2118 17.7378 14.24 17.9252 14.3155 18.0755C14.4087 18.261 14.5941 18.3269 14.8007 18.3259C15.7024 18.3222 16.6041 18.3241 17.5058 18.3241C18.0903 18.3241 18.3442 18.5959 18.3442 19.2174C18.3442 20.1767 18.3337 21.1359 18.3495 22.0942C18.3566 22.5339 18.2107 22.8391 17.8178 23.0005C13.9376 23.0005 10.0566 23.0005 6.17551 23.0005ZM12.0076 20.0635C11.1464 20.0635 10.2851 20.0635 9.42379 20.0635C9.34205 20.0635 9.26032 20.0635 9.18034 20.0709C8.93778 20.095 8.75234 20.2648 8.69082 20.5144C8.62929 20.763 8.70312 21.0301 8.91229 21.1507C9.04763 21.2287 9.21813 21.2741 9.37281 21.2751C11.0005 21.2834 12.6281 21.2806 14.2558 21.2806C14.4184 21.2806 14.5818 21.2862 14.7444 21.2778C15.0186 21.2639 15.2252 21.1006 15.2981 20.853C15.4194 20.4401 15.1531 20.0691 14.7154 20.0663C13.812 20.0589 12.9102 20.0635 12.0076 20.0635Z" fill="#22222C"/>
<path d="M7.01953 1.0116C10.3531 1.0116 13.6453 1.0116 16.9182 1.0116C16.9182 1.46987 16.9533 1.92165 16.9111 2.36509C16.8109 3.43099 16.7125 4.49969 16.5438 5.55446C16.339 6.83466 15.9734 8.06941 15.3248 9.18727C14.7289 10.2133 13.9538 11.0232 12.7901 11.2764C11.4701 11.564 10.3223 11.2031 9.38192 10.1678C8.52239 9.22252 8.06362 8.05271 7.72965 6.81889C7.37283 5.50158 7.19091 4.1518 7.11269 2.78625C7.07929 2.20367 7.05117 1.6183 7.01953 1.0116Z" fill="#22222C"/>
<path d="M16.252 9.83202C16.4989 9.26613 16.7213 8.74663 16.9533 8.23362C16.9797 8.17517 17.0588 8.12879 17.1229 8.1056C18.6196 7.58053 19.5284 6.26044 19.531 4.59803C19.5319 3.98947 19.531 3.38184 19.531 2.77328C19.531 2.7037 19.531 2.63413 19.531 2.54414C19.0125 2.54414 18.5142 2.54414 18.0229 2.54414C18.0229 2.02186 18.0229 1.51998 18.0229 1.00141C18.5941 1.00141 19.1285 1.00141 19.6628 1.00141C19.8658 1.00141 20.0697 0.997695 20.2728 1.00233C20.6551 1.01161 20.9802 1.3094 20.982 1.71015C20.9873 2.86883 21.0339 4.03307 20.9451 5.18525C20.7799 7.33006 19.3438 9.06761 17.3664 9.62514C17.0113 9.72626 16.6387 9.76244 16.252 9.83202Z" fill="#22222C"/>
<path d="M5.97261 1.00146C5.97261 1.51911 5.97261 2.01542 5.97261 2.53307C5.49099 2.53307 4.99267 2.53307 4.50754 2.53307C4.48557 2.56368 4.46975 2.57481 4.46975 2.58595C4.48908 3.53497 4.35725 4.49419 4.54973 5.43115C4.82217 6.75959 5.60964 7.63625 6.81895 8.08525C6.95957 8.1372 7.04043 8.20956 7.10019 8.35149C7.30057 8.83296 7.51501 9.30886 7.72858 9.79682C7.06503 9.77642 6.42258 9.62984 5.82144 9.32185C4.37219 8.57785 3.46169 7.37093 3.11103 5.71038C3.03632 5.35786 3.01347 4.98772 3.0082 4.62499C2.99414 3.70195 3.00205 2.7789 3.0038 1.85586C3.00468 1.31131 3.29559 1.00332 3.80709 1.00239C4.45129 1.00146 5.0955 1.00239 5.73883 1.00239C5.80562 1.00146 5.87154 1.00146 5.97261 1.00146Z" fill="#22222C"/>
<path d="M12.7155 12.4935C12.7155 13.1021 12.7155 13.7218 12.7155 14.3164C12.24 14.3164 11.7707 14.3164 11.2847 14.3164C11.2847 13.7292 11.2847 13.1067 11.2847 12.4935C11.7619 12.4935 12.233 12.4935 12.7155 12.4935Z" fill="#22222C"/>
</svg>
