<svg width="18" height="14" viewBox="0 0 18 14" fill="none" xmlns="http://www.w3.org/2000/svg">
<rect y="0.5" width="18" height="13" rx="2" fill="white"/>
<mask id="mask0_343_2003" style="mask-type:alpha" maskUnits="userSpaceOnUse" x="0" y="0" width="18" height="14">
<rect y="0.5" width="18" height="13" rx="2" fill="white"/>
</mask>
<g mask="url(#mask0_343_2003)">
<path fill-rule="evenodd" clip-rule="evenodd" d="M18 0.5H0V1.36667H18V0.5ZM18 2.23333H0V3.1H18V2.23333ZM0 3.96667H18V4.83333H0V3.96667ZM18 5.7H0V6.56667H18V5.7ZM0 7.43333H18V8.3H0V7.43333ZM18 9.16667H0V10.0333H18V9.16667ZM0 10.9H18V11.7667H0V10.9ZM18 12.6333H0V13.5H18V12.6333Z" fill="#D02F44"/>
<rect y="0.5" width="7.71429" height="6.06667" fill="#46467F"/>
<g filter="url(#filter0_d_343_2003)">
<path fill-rule="evenodd" clip-rule="evenodd" d="M1.71432 1.80003C1.71432 2.03936 1.52244 2.23337 1.28575 2.23337C1.04906 2.23337 0.857178 2.03936 0.857178 1.80003C0.857178 1.56071 1.04906 1.3667 1.28575 1.3667C1.52244 1.3667 1.71432 1.56071 1.71432 1.80003ZM3.42861 1.80003C3.42861 2.03936 3.23673 2.23337 3.00003 2.23337C2.76334 2.23337 2.57146 2.03936 2.57146 1.80003C2.57146 1.56071 2.76334 1.3667 3.00003 1.3667C3.23673 1.3667 3.42861 1.56071 3.42861 1.80003ZM4.71432 2.23337C4.95101 2.23337 5.14289 2.03936 5.14289 1.80003C5.14289 1.56071 4.95101 1.3667 4.71432 1.3667C4.47763 1.3667 4.28575 1.56071 4.28575 1.80003C4.28575 2.03936 4.47763 2.23337 4.71432 2.23337ZM6.85718 1.80003C6.85718 2.03936 6.6653 2.23337 6.42861 2.23337C6.19191 2.23337 6.00003 2.03936 6.00003 1.80003C6.00003 1.56071 6.19191 1.3667 6.42861 1.3667C6.6653 1.3667 6.85718 1.56071 6.85718 1.80003ZM2.14289 3.10003C2.37959 3.10003 2.57146 2.90602 2.57146 2.6667C2.57146 2.42738 2.37959 2.23337 2.14289 2.23337C1.9062 2.23337 1.71432 2.42738 1.71432 2.6667C1.71432 2.90602 1.9062 3.10003 2.14289 3.10003ZM4.28575 2.6667C4.28575 2.90602 4.09387 3.10003 3.85718 3.10003C3.62048 3.10003 3.42861 2.90602 3.42861 2.6667C3.42861 2.42738 3.62048 2.23337 3.85718 2.23337C4.09387 2.23337 4.28575 2.42738 4.28575 2.6667ZM5.57146 3.10003C5.80816 3.10003 6.00003 2.90602 6.00003 2.6667C6.00003 2.42738 5.80816 2.23337 5.57146 2.23337C5.33477 2.23337 5.14289 2.42738 5.14289 2.6667C5.14289 2.90602 5.33477 3.10003 5.57146 3.10003ZM6.85718 3.53337C6.85718 3.77269 6.6653 3.9667 6.42861 3.9667C6.19191 3.9667 6.00003 3.77269 6.00003 3.53337C6.00003 3.29404 6.19191 3.10003 6.42861 3.10003C6.6653 3.10003 6.85718 3.29404 6.85718 3.53337ZM4.71432 3.9667C4.95101 3.9667 5.14289 3.77269 5.14289 3.53337C5.14289 3.29404 4.95101 3.10003 4.71432 3.10003C4.47763 3.10003 4.28575 3.29404 4.28575 3.53337C4.28575 3.77269 4.47763 3.9667 4.71432 3.9667ZM3.42861 3.53337C3.42861 3.77269 3.23673 3.9667 3.00003 3.9667C2.76334 3.9667 2.57146 3.77269 2.57146 3.53337C2.57146 3.29404 2.76334 3.10003 3.00003 3.10003C3.23673 3.10003 3.42861 3.29404 3.42861 3.53337ZM1.28575 3.9667C1.52244 3.9667 1.71432 3.77269 1.71432 3.53337C1.71432 3.29404 1.52244 3.10003 1.28575 3.10003C1.04906 3.10003 0.857178 3.29404 0.857178 3.53337C0.857178 3.77269 1.04906 3.9667 1.28575 3.9667ZM2.57146 4.40003C2.57146 4.63936 2.37959 4.83337 2.14289 4.83337C1.9062 4.83337 1.71432 4.63936 1.71432 4.40003C1.71432 4.16071 1.9062 3.9667 2.14289 3.9667C2.37959 3.9667 2.57146 4.16071 2.57146 4.40003ZM3.85718 4.83337C4.09387 4.83337 4.28575 4.63936 4.28575 4.40003C4.28575 4.16071 4.09387 3.9667 3.85718 3.9667C3.62048 3.9667 3.42861 4.16071 3.42861 4.40003C3.42861 4.63936 3.62048 4.83337 3.85718 4.83337ZM6.00003 4.40003C6.00003 4.63936 5.80816 4.83337 5.57146 4.83337C5.33477 4.83337 5.14289 4.63936 5.14289 4.40003C5.14289 4.16071 5.33477 3.9667 5.57146 3.9667C5.80816 3.9667 6.00003 4.16071 6.00003 4.40003ZM6.42861 5.70003C6.6653 5.70003 6.85718 5.50602 6.85718 5.2667C6.85718 5.02738 6.6653 4.83337 6.42861 4.83337C6.19191 4.83337 6.00003 5.02738 6.00003 5.2667C6.00003 5.50602 6.19191 5.70003 6.42861 5.70003ZM5.14289 5.2667C5.14289 5.50602 4.95101 5.70003 4.71432 5.70003C4.47763 5.70003 4.28575 5.50602 4.28575 5.2667C4.28575 5.02738 4.47763 4.83337 4.71432 4.83337C4.95101 4.83337 5.14289 5.02738 5.14289 5.2667ZM3.00003 5.70003C3.23673 5.70003 3.42861 5.50602 3.42861 5.2667C3.42861 5.02738 3.23673 4.83337 3.00003 4.83337C2.76334 4.83337 2.57146 5.02738 2.57146 5.2667C2.57146 5.50602 2.76334 5.70003 3.00003 5.70003ZM1.71432 5.2667C1.71432 5.50602 1.52244 5.70003 1.28575 5.70003C1.04906 5.70003 0.857178 5.50602 0.857178 5.2667C0.857178 5.02738 1.04906 4.83337 1.28575 4.83337C1.52244 4.83337 1.71432 5.02738 1.71432 5.2667Z" fill="url(#paint0_linear_343_2003)"/>
</g>
</g>
<defs>
<filter id="filter0_d_343_2003" x="0.857178" y="1.3667" width="6" height="5.33337" filterUnits="userSpaceOnUse" color-interpolation-filters="sRGB">
<feFlood flood-opacity="0" result="BackgroundImageFix"/>
<feColorMatrix in="SourceAlpha" type="matrix" values="0 0 0 0 0 0 0 0 0 0 0 0 0 0 0 0 0 0 127 0" result="hardAlpha"/>
<feOffset dy="1"/>
<feColorMatrix type="matrix" values="0 0 0 0 0 0 0 0 0 0 0 0 0 0 0 0 0 0 0.06 0"/>
<feBlend mode="normal" in2="BackgroundImageFix" result="effect1_dropShadow_343_2003"/>
<feBlend mode="normal" in="SourceGraphic" in2="effect1_dropShadow_343_2003" result="shape"/>
</filter>
<linearGradient id="paint0_linear_343_2003" x1="0.857178" y1="1.3667" x2="0.857178" y2="5.70003" gradientUnits="userSpaceOnUse">
<stop stop-color="white"/>
<stop offset="1" stop-color="#F0F0F0"/>
</linearGradient>
</defs>
</svg>
