<svg width="18" height="14" viewBox="0 0 18 14" fill="none" xmlns="http://www.w3.org/2000/svg">
<rect x="0.25" y="0.75" width="17.5" height="12.5" rx="1.75" fill="white" stroke="#F5F5F5" stroke-width="0.5"/>
<mask id="mask0_343_3223" style="mask-type:alpha" maskUnits="userSpaceOnUse" x="0" y="0" width="18" height="14">
<rect x="0.25" y="0.75" width="17.5" height="12.5" rx="1.75" fill="white" stroke="white" stroke-width="0.5"/>
</mask>
<g mask="url(#mask0_343_3223)">
<path fill-rule="evenodd" clip-rule="evenodd" d="M0 4.83333H18V0.5H0V4.83333Z" fill="#04AAC8"/>
<path fill-rule="evenodd" clip-rule="evenodd" d="M0 13.5H18V9.16663H0V13.5Z" fill="#23C840"/>
<path fill-rule="evenodd" clip-rule="evenodd" d="M3.00007 3.9667C3.26446 3.9667 3.51022 3.88601 3.71456 3.74765C3.69088 3.74923 3.667 3.75003 3.64293 3.75003C3.05119 3.75003 2.5715 3.26501 2.5715 2.6667C2.5715 2.06839 3.05119 1.58337 3.64293 1.58337C3.667 1.58337 3.69088 1.58417 3.71456 1.58575C3.51022 1.44739 3.26446 1.3667 3.00007 1.3667C2.28999 1.3667 1.71436 1.94873 1.71436 2.6667C1.71436 3.38467 2.28999 3.9667 3.00007 3.9667ZM5.14293 3.53337C5.14293 3.77269 4.95105 3.9667 4.71436 3.9667C4.47766 3.9667 4.28578 3.77269 4.28578 3.53337C4.28578 3.29404 4.47766 3.10003 4.71436 3.10003C4.95105 3.10003 5.14293 3.29404 5.14293 3.53337ZM6.42864 2.23337C6.66533 2.23337 6.85721 2.03936 6.85721 1.80003C6.85721 1.56071 6.66533 1.3667 6.42864 1.3667C6.19195 1.3667 6.00007 1.56071 6.00007 1.80003C6.00007 2.03936 6.19195 2.23337 6.42864 2.23337ZM8.5715 1.80003C8.5715 2.03936 8.37962 2.23337 8.14293 2.23337C7.90623 2.23337 7.71435 2.03936 7.71435 1.80003C7.71435 1.56071 7.90623 1.3667 8.14293 1.3667C8.37962 1.3667 8.5715 1.56071 8.5715 1.80003ZM8.14293 3.9667C8.37962 3.9667 8.5715 3.77269 8.5715 3.53337C8.5715 3.29404 8.37962 3.10003 8.14293 3.10003C7.90623 3.10003 7.71435 3.29404 7.71435 3.53337C7.71435 3.77269 7.90623 3.9667 8.14293 3.9667ZM6.85721 3.53337C6.85721 3.77269 6.66533 3.9667 6.42864 3.9667C6.19195 3.9667 6.00007 3.77269 6.00007 3.53337C6.00007 3.29404 6.19195 3.10003 6.42864 3.10003C6.66533 3.10003 6.85721 3.29404 6.85721 3.53337Z" fill="white"/>
</g>
</svg>
